<svg id="Layer_1" data-name="Layer 1" xmlns="http://www.w3.org/2000/svg" viewBox="0 0 1470.22 826.87"><defs><style>.cls-1{fill:#fff;stroke-width:0.26px;}.cls-1,.cls-4{stroke:#204396;stroke-miterlimit:10;}.cls-2{opacity:0.3;}.cls-3{fill:#dcdbdb;}.cls-4{fill:none;stroke-width:2.49px;}.cls-5{fill:#224099;}</style></defs><rect class="cls-1" y="61.39" width="1470.22" height="729.82"/><g class="cls-2"><path class="cls-3" d="M1128.89,327H1172V437.92h-43.09V397l-23,2v38.95h-43V327h43V367.1l23-1.88Z"/><path class="cls-3" d="M1109.4,620.05a64.29,64.29,0,0,1-42.37-16,56.79,56.79,0,0,1-13.86-18.51,55.48,55.48,0,0,1-5.13-24.12,57.37,57.37,0,0,1,4.81-23.75,55.09,55.09,0,0,1,13.32-18.4,60.14,60.14,0,0,1,19.6-11.83,67.24,67.24,0,0,1,23.62-4.13,73.61,73.61,0,0,1,24.52,4,59.2,59.2,0,0,1,19.92,11.6,53.22,53.22,0,0,1,13.34,18.47A60.11,60.11,0,0,1,1172,562a55.92,55.92,0,0,1-5,24.06,54.52,54.52,0,0,1-13.83,18.29,63.45,63.45,0,0,1-20,11.63A69.33,69.33,0,0,1,1109.4,620.05Zm-4.85-36.11c2.45,0,5-1.19,7.82-3.58a43.25,43.25,0,0,0,7.81-9.13,58.4,58.4,0,0,0,6-11.73,32.51,32.51,0,0,0,2.32-11.38,12.45,12.45,0,0,0-2.56-8.06q-2.57-3.19-8.65-3.19c-2.48,0-5.15,1.17-8,3.51a41.57,41.57,0,0,0-8,9,58.75,58.75,0,0,0-6,11.67,31.87,31.87,0,0,0-2.35,11.35,12.66,12.66,0,0,0,2.67,8.26Q1098.25,584,1104.55,583.94Z"/><path class="cls-3" d="M1062.91,548.61V437.73h-15.28l-54.85,50.33-53.39-50.33H333.46V548.62H377.4a82.34,82.34,0,0,1,164.66,0H961.79V513.49l27.46,30.26,28.22-31.1v36Z"/><path class="cls-3" d="M1032.6,287.69a51.3,51.3,0,0,0,15.85-14.41q6.21-8.71,6.21-20.86a38.08,38.08,0,0,0-2.69-13.89,36.46,36.46,0,0,0-8.48-12.7,42,42,0,0,0-15.23-9.27q-9.42-3.51-23-3.51-6.49,0-14.77.32t-16.69.76q-8.42.47-15.5.94c-4.73.33-10,.7-897.67,1.11V327.06H94c0-1.11-.08-2.22-.08-3.34,0-45.66,37.23-82.67,83.15-82.67s83.15,37,83.15,82.67c0,1.12,0,2.23-.07,3.34h728V294.91l19.62,32.14h55.17Zm-25.32-23.85q-5.89,5.87-19.45,10.87V247.56l9.29-3.82c1.58-.64,3.1-1.19,4.54-1.63a14.33,14.33,0,0,1,4.19-.66,7.18,7.18,0,0,1,5.24,2.08q2.08,2.08,2.09,7.71Q1013.18,258,1007.28,263.84Z"/></g><path class="cls-4" d="M617.4,327.06V216.18l15.66-1.11q7-.48,15.35-.94t16.53-.76q8.2-.31,14.63-.32,13.42,0,22.76,3.51a41.52,41.52,0,0,1,15.07,9.27,36.52,36.52,0,0,1,8.41,12.7,38.66,38.66,0,0,1,2.66,13.89q0,12.15-6.16,20.86a50.83,50.83,0,0,1-15.69,14.41l30,39.36H682l-19.44-32.14v32.15Zm44.88-52.35q13.43-5,19.26-10.87t5.85-12.6q0-5.62-2.08-7.71a7,7,0,0,0-5.18-2.08,14.07,14.07,0,0,0-4.15.66c-1.43.44-2.93,1-4.5,1.63l-9.2,3.82Z"/><path class="cls-4" d="M802.29,327h43.09V437.92H802.29V397l-23,2v38.95h-43V327h43V367.1l23-1.88Z"/><path class="cls-4" d="M597,437.74h15.84l53.39,50.33,54.85-50.33h15.28V548.61H690.94v-36l-28.22,31.1-27.46-30.26v35.13H597Z"/><path class="cls-4" d="M795.64,620.05a64.34,64.34,0,0,1-42.37-16,56.79,56.79,0,0,1-13.86-18.51,55.62,55.62,0,0,1-5.12-24.12,57.37,57.37,0,0,1,4.8-23.75,55.23,55.23,0,0,1,13.32-18.4A60.18,60.18,0,0,1,772,507.47a67.23,67.23,0,0,1,23.61-4.13,73.61,73.61,0,0,1,24.52,4,59,59,0,0,1,19.92,11.6,53.37,53.37,0,0,1,13.35,18.47,60.27,60.27,0,0,1,4.8,24.61,55.92,55.92,0,0,1-5,24.06,54.52,54.52,0,0,1-13.83,18.29,63.4,63.4,0,0,1-20,11.63A69.39,69.39,0,0,1,795.64,620.05Zm-4.84-36.11q3.66,0,7.81-3.58a43.25,43.25,0,0,0,7.81-9.13,59,59,0,0,0,6-11.73,32.71,32.71,0,0,0,2.31-11.38,12.45,12.45,0,0,0-2.56-8.06q-2.55-3.19-8.64-3.19c-2.49,0-5.16,1.17-8,3.51a41.28,41.28,0,0,0-7.95,9,58.27,58.27,0,0,0-6.06,11.67,32.09,32.09,0,0,0-2.35,11.35,12.66,12.66,0,0,0,2.67,8.26Q784.5,584,790.8,583.94Z"/><path class="cls-5" d="M521.43,652.73h-6v9.12h-2.87v-9.12h-5.49v-2.88h14.37Z"/><path class="cls-5" d="M538.81,649.86v12h-2.87v-4.54h-9.85v4.54h-2.86v-12h2.86v4.57h9.85v-4.57Z"/><path class="cls-5" d="M544.41,652.68v1.7h8.1v2.88h-8.1V659h8.86v2.88H541.54V649.8h11.73v2.88Z"/><path class="cls-5" d="M581.05,661.85h-3.41l-1.74-2.72h-7.64l-1.74,2.72h-3.41l7.72-12.07h2.51Zm-7-5.6-2-3.1-2,3.1Z"/><path class="cls-5" d="M594.19,661.85l-2.92-2.78h-5.81v2.77h-2.87v-12h8.24c3.54,0,6.3,2,6.3,4.61a4.36,4.36,0,0,1-2.64,3.77l3.77,3.61Zm-8.73-5.54h5.37c2,0,3.43-1,3.43-1.84s-1.46-1.84-3.43-1.84h-5.37Z"/><path class="cls-5" d="M614.61,659.19a9.7,9.7,0,0,1-7,2.66c-4.76,0-8.49-2.67-8.49-6.08s3.73-6.09,8.49-6.09a10.83,10.83,0,0,1,5.42,1.38l-1.45,2.48a8,8,0,0,0-4-1c-3.31,0-5.62,1.69-5.62,3.21s2.31,3.2,5.62,3.2a7,7,0,0,0,4.95-1.75Z"/><path class="cls-5" d="M631.9,649.86v12H629v-4.54h-9.84v4.54h-2.87v-12h2.87v4.57H629v-4.57Z"/><path class="cls-5" d="M634.63,661.85v-12h2.87v12Z"/><path class="cls-5" d="M653.68,652.73h-6v9.12H644.8v-9.12h-5.49v-2.88h14.37Z"/><path class="cls-5" d="M658.34,652.68v1.7h8.1v2.88h-8.1V659h8.87v2.88H655.47V649.8h11.74v2.88Z"/><path class="cls-5" d="M684.22,659.19a9.72,9.72,0,0,1-7.05,2.66c-4.76,0-8.48-2.67-8.48-6.08s3.72-6.09,8.48-6.09a10.84,10.84,0,0,1,5.43,1.38l-1.46,2.48a7.94,7.94,0,0,0-4-1c-3.31,0-5.62,1.69-5.62,3.21s2.31,3.2,5.62,3.2a7,7,0,0,0,5-1.75Z"/><path class="cls-5" d="M699.35,652.73h-6v9.12h-2.87v-9.12H685v-2.88h14.36Z"/><path class="cls-5" d="M715.4,649.73v6.63c0,3.08-3.19,5.49-7.27,5.49s-7.27-2.41-7.27-5.49v-6.63h2.87v6.63c0,1.24,1.81,2.61,4.4,2.61s4.4-1.37,4.4-2.61v-6.63Z"/><path class="cls-5" d="M729.44,661.85l-2.91-2.78h-5.82v2.77h-2.87v-12h8.25c3.53,0,6.3,2,6.3,4.61a4.37,4.37,0,0,1-2.64,3.77l3.77,3.61Zm-8.73-5.54h5.38c2,0,3.43-1,3.43-1.84s-1.47-1.84-3.43-1.84h-5.38Z"/><path class="cls-5" d="M738.11,652.68v1.7h8.1v2.88h-8.1V659H747v2.88H735.24V649.8H747v2.88Z"/><path class="cls-5" d="M775,655.78c0,3.4-3.89,6.07-8.84,6.07s-8.84-2.67-8.84-6.07,3.89-6.07,8.84-6.07S775,652.37,775,655.78Zm-2.87,0c0-1.84-2.74-3.4-6-3.4s-6,1.56-6,3.4,2.74,3.39,6,3.39S772.13,657.62,772.13,655.78Z"/><path class="cls-5" d="M779.91,652.66v1.71H788v2.88h-8.1v4.6H777V649.78h11.73v2.88Z"/><path class="cls-5" d="M799.41,661.85v-12h2.87v12Z"/><path class="cls-5" d="M824.9,649.87v12H822v-8.47l-6.33,5.52h-1.48l-6.34-5.52v8.47H805v-12h3.22l6.73,5.86,6.73-5.86Z"/><path class="cls-5" d="M844.41,661.85H841l-1.74-2.71h-7.65l-1.73,2.71h-3.41l7.71-12.07h2.51Zm-7-5.59-2-3.11-2,3.11Z"/><path class="cls-5" d="M859.4,654.44V657a4.47,4.47,0,0,1-2.77,3.92l0,0a10.27,10.27,0,0,1-4.43,1c-4.55,0-8.12-2.67-8.12-6.08s3.57-6.08,8.12-6.08a9.66,9.66,0,0,1,5.91,1.89l-1.78,2.24a6.75,6.75,0,0,0-4.13-1.27c-2.84,0-5.25,1.48-5.25,3.22s2.41,3.22,5.25,3.22a7.27,7.27,0,0,0,3.18-.68h0a2.13,2.13,0,0,0,1.08-1H851v-2.86Z"/><path class="cls-5" d="M861.55,661.85v-12h2.87v12Z"/><path class="cls-5" d="M883.76,649.85v12h-3.31L870,653.37v8.47h-2.87v-12h3.13l10.6,8.62v-8.65Z"/><path class="cls-5" d="M903.26,661.85h-3.41l-1.73-2.71h-7.65l-1.74,2.71h-3.41L893,649.78h2.51Zm-7-5.59-2-3.11-2,3.11Z"/><path class="cls-5" d="M916.27,652.73h-6v9.12h-2.87v-9.12H901.9v-2.88h14.37Z"/><path class="cls-5" d="M918.06,661.85v-12h2.87v12Z"/><path class="cls-5" d="M940.67,655.78c0,3.4-3.88,6.07-8.84,6.07s-8.83-2.67-8.83-6.07,3.88-6.07,8.83-6.07S940.67,652.37,940.67,655.78Zm-2.87,0c0-1.84-2.73-3.4-6-3.4s-6,1.56-6,3.4,2.73,3.39,6,3.39S937.8,657.62,937.8,655.78Z"/><path class="cls-5" d="M959.31,649.85v12H956l-10.42-8.48v8.47h-2.87v-12h3.13l10.6,8.62v-8.65Z"/><path class="cls-5" d="M961.5,661.85v-1.67h1.66v1.67Z"/></svg>