<svg version="1.1" id="Layer_1" xmlns="http://www.w3.org/2000/svg" xmlns:xlink="http://www.w3.org/1999/xlink" x="0px" y="0px" width="100%" viewBox="0 0 1000 1250" enable-background="new 0 0 1000 1250">
  <path fill="#003366" opacity="1.000000" stroke="none" d="
M813.867432,460.000488 
	C814.007019,461.469513 814.146606,462.938538 814.333252,464.903503 
	C847.390198,464.903503 880.309509,464.903503 913.612183,464.903503 
	C913.612183,598.306213 913.612183,731.195129 913.612183,864.810181 
	C897.376465,864.810181 881.011841,864.810181 864.115601,864.810181 
	C864.115601,915.099854 864.115601,964.668518 864.115601,1014.782837 
	C847.344299,1014.782837 831.100037,1014.782837 814.142700,1014.782837 
	C814.142700,1065.011719 814.142700,1114.700195 814.142700,1164.691528 
	C647.205566,1164.691528 480.987793,1164.691528 314.227112,1164.691528 
	C314.227112,1115.013428 314.227112,1065.444702 314.227112,1015.152588 
	C297.340607,1015.152588 280.972321,1015.152588 263.946716,1015.152588 
	C263.946716,981.658813 263.946716,948.887024 263.950653,915.584290 
	C263.954590,915.053406 264.103821,914.895813 264.563660,914.942749 
	C281.281799,914.989746 297.540100,914.989746 314.229675,914.989746 
	C314.229675,932.031738 314.229675,948.435669 314.229675,965.267212 
	C331.069916,965.267212 347.473785,965.267212 364.301453,965.267212 
	C364.301453,1015.437439 364.301453,1065.169189 364.301453,1114.624146 
	C497.795685,1114.624146 630.853943,1114.624146 764.170044,1114.624146 
	C764.170044,1064.635742 764.170044,1015.023010 764.170044,964.972534 
	C780.826050,964.972534 797.229919,964.972534 814.061768,964.972534 
	C814.061768,914.803772 814.061768,865.072021 814.061768,814.903931 
	C830.895813,814.903931 847.299438,814.903931 863.721924,814.903931 
	C863.721924,714.737732 863.721924,615.010925 863.721924,514.845459 
	C847.044617,514.845459 830.640747,514.845459 814.000000,514.845459 
	C814.000000,499.931763 814.030273,485.455750 813.959167,470.980225 
	C813.950867,469.291656 813.382263,467.605896 812.902100,465.582397 
	C811.487244,465.108429 810.243591,464.970886 809.000244,464.426941 
	C808.353271,459.932892 810.935547,459.755066 813.867432,460.000488 
z"></path>
  <path fill="#003366" opacity="1.000000" stroke="none" d="M 416.705 114.912 C 433.156 114.912 449.606 114.912 466.6 114.912 C 466.6 181.809 466.6 248.048 466.6 314.835 C 516.718 314.835 566.291 314.835 616.414 314.835 C 616.414 331.615 616.414 347.86 616.414 364.828 C 649.982 364.828 683.011 364.828 716.671 364.828 C 716.671 371.489 716.671 377.433 716.671 383.378 C 716.671 392.544 716.581 401.712 716.768 410.875 C 716.796 412.269 718.111 413.638 719.251 415.463 C 719.661 417.918 720.098 420.239 716.763 419.622 C 716.326 418.176 715.964 417.107 715.458 415.624 C 683.831 415.139 652.348 415.069 620.864 415 C 619.584 414.998 618.304 415 616.606 415 C 616.606 465.203 616.606 514.928 616.606 564.74 C 599.783 564.74 583.386 564.74 566.571 564.74 C 566.571 498.093 566.571 431.706 566.571 365.27 C 533.09 365.27 500.03 365.27 466.546 365.27 C 466.546 415.263 466.546 464.988 466.546 514.71 C 449.722 514.71 433.325 514.71 416.671 514.71 C 416.671 512.447 416.671 510.472 416.671 508.496 C 416.656 377.702 416.642 246.907 416.646 115.812 C 416.678 115.312 416.692 115.112 416.705 114.912 Z"></path>
  <path fill="#003366" opacity="1.000000" stroke="none" d="
M223.000214,565.132629 
	C236.451096,565.132629 249.901978,565.132629 263.845215,565.132629 
	C263.845215,414.924194 263.845215,265.386322 263.845215,115.040039 
	C277.244110,115.040039 290.155518,115.040039 303.540771,115.462067 
	C305.263916,122.083542 310.250580,119.367203 313.908417,120.463318 
	C313.983490,335.509979 313.983490,550.093323 313.983490,764.723022 
	C297.082458,764.723022 280.683289,764.723022 263.924469,764.723022 
	C263.924469,716.314453 263.924469,668.182251 263.949005,619.640625 
	C264.313263,615.699158 261.958984,615.038818 259.269745,615.028076 
	C247.327484,614.980164 235.384171,614.941711 223.442917,615.064148 
	C220.455582,615.094727 217.474487,615.735535 214.131256,616.139221 
	C214.131256,600.133057 214.131256,585.066528 214.550674,570.000000 
	C218.570938,569.902161 222.838989,570.905090 223.000214,565.132629 
z"></path>
  <path fill="#003366" opacity="1.000000" stroke="none" d="
M263.882019,915.134033 
	C247.500397,915.214722 231.191360,915.214722 214.162689,915.214722 
	C214.162689,898.350342 214.162689,881.984619 214.162689,865.089478 
	C197.211105,865.089478 180.970688,865.089478 164.199539,865.089478 
	C164.199539,831.651917 164.199539,798.752136 164.199539,765.133301 
	C147.319336,765.133301 130.953857,765.133301 113.946571,765.133301 
	C113.946571,731.648193 113.946571,698.881592 113.950699,665.583984 
	C113.954819,665.053101 114.104095,664.895996 114.564003,664.942871 
	C131.270859,664.989807 147.517807,664.989807 164.180237,664.989807 
	C164.180237,681.987000 164.180237,698.379211 164.180237,715.184692 
	C180.991486,715.184692 197.384186,715.184692 214.170776,715.184692 
	C214.170776,748.649963 214.170776,781.694519 214.170776,815.156982 
	C230.963196,815.156982 247.355865,815.156982 264.103821,815.156982 
	C264.103821,848.684448 264.103821,881.790100 264.103821,914.895813 
	C264.103821,914.895813 263.954590,915.053406 263.882019,915.134033 
z"></path>
  <path fill="#003366" opacity="1.000000" stroke="none" d="
M222.546112,565.083740 
	C222.838989,570.905090 218.570938,569.902161 214.500732,569.644287 
	C213.663437,568.175476 213.295502,567.062378 212.753143,565.551270 
	C195.402557,565.127319 178.226410,565.101379 160.579132,565.049194 
	C145.722412,565.041321 131.336838,565.059753 116.512482,565.044067 
	C115.382507,566.142944 114.090210,567.274475 114.087601,568.408997 
	C114.013557,600.571167 114.069427,632.733582 114.104095,664.895996 
	C114.104095,664.895996 113.954819,665.053101 113.882065,665.133789 
	C97.497551,665.214478 81.185776,665.214478 64.438187,665.214478 
	C64.438187,615.000183 64.438187,565.315674 64.438187,515.315002 
	C114.128952,515.315002 163.695435,515.315002 213.812851,515.315002 
	C213.812851,531.684387 213.812851,547.927002 213.812851,565.034912 
	C216.929016,565.034912 219.510513,565.034912 222.546112,565.083740 
z"></path>
  <path fill="#003366" opacity="1.000000" stroke="none" d="
M714.166626,420.000000 
	C717.427490,420.239075 716.990295,417.918243 717.000000,415.519714 
	C749.069946,415.132629 781.139832,415.132629 813.966553,415.132629 
	C813.966553,429.948761 813.966553,444.507904 813.916992,459.533752 
	C810.935547,459.755066 808.353271,459.932892 808.536865,464.502014 
	C793.495728,464.983490 778.918213,464.983490 763.956726,464.983490 
	C763.956726,515.343262 763.956726,565.192505 763.974854,614.997925 
	C763.993042,614.954163 764.087952,614.967041 763.613892,614.981873 
	C750.776489,615.022949 738.413147,615.049255 725.629517,615.055969 
	C721.446899,615.007996 717.684509,614.979675 713.957153,614.486938 
	C713.994812,556.161194 713.991882,498.299988 714.007263,440.438751 
	C714.009094,433.625824 714.111084,426.812927 714.166626,420.000000 
z"></path>
  <path fill="#003366" opacity="1.000000" stroke="none" d="
M313.833344,119.999947 
	C310.250580,119.367203 305.263916,122.083542 304.007324,115.508369 
	C307.121216,115.132652 310.242432,115.132652 313.893097,115.132652 
	C313.893097,98.236145 313.893097,81.995750 313.893097,65.381073 
	C347.320526,65.381073 380.213623,65.381073 414.008423,65.381073 
	C414.008423,81.521095 414.008423,97.756325 414.021423,114.451805 
	C414.020660,115.112114 414.006927,115.312187 413.592590,115.621399 
	C412.117004,115.487061 411.042236,115.032204 409.966919,115.030853 
	C379.445343,114.992638 348.923706,114.988991 318.402191,115.042885 
	C317.248291,115.044922 316.095490,115.676300 314.962952,115.973602 
	C314.983765,115.932793 315.076050,115.942871 314.707794,116.066498 
	C314.170807,117.460068 314.002075,118.730003 313.833344,119.999947 
z"></path>
  <path fill="#FFFFFF" opacity="1.000000" stroke="none" d="
M114.564003,664.942871 
	C114.069427,632.733582 114.013557,600.571167 114.087601,568.408997 
	C114.090210,567.274475 115.382507,566.142944 116.358017,565.426819 
	C116.094872,567.316589 115.074829,568.788025 115.069916,570.262817 
	C114.975395,598.592651 115.000000,626.922791 115.000000,655.252930 
	C115.000000,657.707520 115.000000,660.162170 115.000000,663.000000 
	C130.186096,663.000000 144.972809,662.993225 159.759521,663.003967 
	C164.447968,663.007385 166.141586,664.992554 165.937164,669.507812 
	C165.519440,678.734741 165.242950,687.969238 165.022690,697.203430 
	C164.897980,702.431580 165.000183,707.665100 165.000183,713.000000 
	C180.678421,713.000000 195.670959,713.144958 210.657425,712.907349 
	C214.890091,712.840210 216.225266,714.541687 215.999786,718.327515 
	C215.667130,723.912720 215.068985,729.496826 215.045609,735.083313 
	C214.941025,760.080017 215.039398,785.077576 214.950729,810.074402 
	C214.939575,813.221130 216.196915,814.142212 219.127213,814.040833 
	C223.621323,813.885315 228.130753,814.148560 232.622971,813.967773 
	C241.002808,813.630554 249.447205,813.626038 257.727112,812.484558 
	C264.180878,811.594910 265.997009,812.307861 265.997986,818.677124 
	C266.002502,848.340393 266.000000,878.003723 266.000000,907.666992 
	C266.000000,909.415527 266.000000,911.164001 266.000000,913.000000 
	C270.022766,913.000000 273.350250,913.000000 276.677734,913.000000 
	C288.343079,913.000000 300.008453,913.010132 311.673767,912.991943 
	C314.173096,912.988098 315.969269,912.980713 315.909485,916.643555 
	C315.658875,931.993958 315.803711,947.350830 315.803711,963.108398 
	C331.906097,963.108398 348.314148,963.108398 365.000000,963.108398 
	C365.000000,965.301636 365.000000,967.106995 365.000000,968.912292 
	C365.000000,1014.407166 365.000000,1059.901978 365.000000,1105.396851 
	C365.000000,1113.759888 364.998901,1113.747192 373.163147,1113.015381 
	C374.320404,1112.911621 375.494934,1113.000000 376.661469,1113.000000 
	C503.480377,1112.999878 630.299316,1113.000000 757.118225,1113.000000 
	C759.038513,1113.000000 760.958801,1113.000000 763.000000,1113.000000 
	C763.000000,1111.182861 763.000000,1110.026611 763.000000,1108.870361 
	C763.000000,1062.208984 763.058472,1015.547485 762.906006,968.886597 
	C762.891418,964.413696 763.830383,962.748779 768.667786,962.882324 
	C781.323364,963.231506 794.001648,962.762817 806.656921,963.117615 
	C811.658936,963.257935 813.174561,961.952515 813.114868,956.787720 
	C812.584167,910.876343 812.322632,864.961792 812.018494,819.047913 
	C811.991211,814.928528 812.249451,811.076599 809.360474,807.312866 
	C807.585632,805.000610 807.545044,801.250183 807.034607,798.095520 
	C805.727844,790.019470 804.007019,781.949280 803.539001,773.814148 
	C802.950867,763.590820 803.146118,753.292725 803.577026,743.050964 
	C803.863281,736.247437 805.177246,729.488953 805.988770,722.705200 
	C806.853027,715.481262 807.406311,708.208740 808.576904,701.036072 
	C809.739441,693.913208 811.706177,686.923889 812.943054,679.810364 
	C814.209839,672.524719 814.421265,665.293579 813.290466,657.786255 
	C812.068909,649.676575 812.322266,641.266418 812.681030,633.019897 
	C813.016479,625.309509 812.289795,617.382263 816.294067,610.101257 
	C818.344055,606.373718 818.879456,601.753967 821.168396,598.232300 
	C823.988281,593.893860 824.101624,587.648132 830.622375,585.614258 
	C834.086243,584.533752 836.921082,581.436646 839.910645,579.340454 
	C839.941895,579.597961 840.079834,580.732849 840.211487,581.816223 
	C843.561768,582.237915 845.909546,582.419067 846.265442,577.999146 
	C846.422363,576.051392 849.244751,574.318359 850.856934,572.487793 
	C851.177917,572.782104 851.498962,573.076416 851.819946,573.370667 
	C851.766663,574.222900 851.713440,575.075195 851.660156,575.927429 
	C851.948059,575.971863 852.235901,576.016235 852.523804,576.060669 
	C853.225037,573.986023 853.926208,571.911377 854.627380,569.836731 
	C854.933838,569.950684 855.240295,570.064575 855.546692,570.178467 
	C856.110291,574.245972 856.673828,578.313477 857.237366,582.380981 
	C857.518982,582.353149 857.800659,582.325378 858.082275,582.297607 
	C858.082275,578.671509 858.082275,575.045410 858.082275,571.419312 
	C858.255310,571.409668 858.428406,571.400085 858.601440,571.390503 
	C859.458496,577.091858 860.315552,582.793213 861.172607,588.494568 
	C862.000000,573.565918 861.893494,558.742859 862.044861,543.922485 
	C862.120605,536.501465 862.634705,529.083618 863.013000,521.667603 
	C863.213989,517.728271 862.115967,515.597534 857.492004,515.903564 
	C851.518860,516.298950 845.499756,516.000000 839.500427,516.000000 
	C830.735840,516.000000 821.971191,516.000000 813.000000,516.000000 
	C813.000000,501.282349 813.027405,487.138977 812.970276,472.995972 
	C812.961792,470.896149 812.554810,468.797882 812.517700,466.504089 
	C812.826599,466.179108 812.950012,466.048981 813.073364,465.918823 
	C813.382263,467.605896 813.950867,469.291656 813.959167,470.980225 
	C814.030273,485.455750 814.000000,499.931763 814.000000,514.845459 
	C830.640747,514.845459 847.044617,514.845459 863.721924,514.845459 
	C863.721924,615.010925 863.721924,714.737732 863.721924,814.903931 
	C847.299438,814.903931 830.895813,814.903931 814.061768,814.903931 
	C814.061768,865.072021 814.061768,914.803772 814.061768,964.972534 
	C797.229919,964.972534 780.826050,964.972534 764.170044,964.972534 
	C764.170044,1015.023010 764.170044,1064.635742 764.170044,1114.624146 
	C630.853943,1114.624146 497.795685,1114.624146 364.301453,1114.624146 
	C364.301453,1065.169189 364.301453,1015.437439 364.301453,965.267212 
	C347.473785,965.267212 331.069916,965.267212 314.229675,965.267212 
	C314.229675,948.435669 314.229675,932.031738 314.229675,914.989746 
	C297.540100,914.989746 281.281799,914.989746 264.563660,914.942749 
	C264.103821,881.790100 264.103821,848.684448 264.103821,815.156982 
	C247.355865,815.156982 230.963196,815.156982 214.170776,815.156982 
	C214.170776,781.694519 214.170776,748.649963 214.170776,715.184692 
	C197.384186,715.184692 180.991486,715.184692 164.180237,715.184692 
	C164.180237,698.379211 164.180237,681.987000 164.180237,664.989807 
	C147.517807,664.989807 131.270859,664.989807 114.564003,664.942871 
z"></path>
  <path fill="#FFFFFF" opacity="1.000000" stroke="none" d="
M763.956726,615.041748 
	C763.956726,565.192505 763.956726,515.343262 763.956726,464.983490 
	C778.918213,464.983490 793.495728,464.983490 808.536621,464.908447 
	C810.243591,464.970886 811.487244,465.108429 812.902100,465.582397 
	C812.950012,466.048981 812.826599,466.179108 812.179443,466.224518 
	C797.497253,466.093201 783.337952,466.124695 769.181274,465.942841 
	C765.815430,465.899567 764.600037,467.196777 765.001282,470.365326 
	C765.327698,472.942871 765.989624,475.525818 765.936646,478.094696 
	C765.763977,486.477905 765.071838,494.855804 765.072998,503.235718 
	C765.074158,511.651947 765.915588,520.066956 765.954102,528.484497 
	C766.077637,555.474304 766.040405,582.465149 765.912170,609.454895 
	C765.903320,611.320190 764.637817,613.179626 763.956726,615.041748 
z"></path>
  <path fill="#FFFFFF" opacity="1.000000" stroke="none" d="
M314.942169,116.014412 
	C316.095490,115.676300 317.248291,115.044922 318.402191,115.042885 
	C348.923706,114.988991 379.445343,114.992638 409.966919,115.030853 
	C411.042236,115.032204 412.117004,115.487061 413.574097,115.921646 
	C413.970764,246.907303 413.985352,377.701874 413.999939,508.496429 
	C414.000183,510.471558 414.000000,512.446716 414.000000,514.709717 
	C430.654022,514.709717 447.051239,514.709717 463.875244,514.709717 
	C463.875244,464.987762 463.875244,415.263184 463.875244,365.270050 
	C497.359253,365.270050 530.419250,365.270050 563.899902,365.270050 
	C563.899902,431.705780 563.899902,498.093170 563.899902,564.739624 
	C580.714966,564.739624 597.111755,564.739624 613.934998,564.739624 
	C613.934998,514.927673 613.934998,465.203064 613.934998,415.000031 
	C615.633240,415.000031 616.912964,414.997559 618.192688,415.000366 
	C649.676575,415.069305 681.160522,415.138794 712.820312,415.600891 
	C712.996155,415.993622 713.057556,415.942505 712.585938,415.969238 
	C679.855103,415.995941 647.595947,415.995941 614.815186,415.995941 
	C614.815186,466.177307 614.815186,516.047913 614.815186,565.648560 
	C597.221985,565.648560 580.152100,565.648560 563.000000,565.648560 
	C563.000000,563.469543 563.000000,561.641296 563.000000,559.812988 
	C563.000000,497.168884 562.955750,434.524689 563.093201,371.880890 
	C563.103027,367.402893 562.151001,365.817627 557.330872,365.883118 
	C537.008606,366.159332 516.680054,365.930267 496.354553,366.032196 
	C487.445984,366.076874 478.455292,367.295624 469.662933,366.400085 
	C464.362091,365.860168 464.980194,368.131653 465.007782,371.188385 
	C465.328979,406.761505 465.690460,442.334351 465.985809,477.907684 
	C466.077057,488.898254 466.062653,499.890900 465.944855,510.880981 
	C465.922516,512.967346 465.185303,515.046082 464.973175,516.130249 
	C446.679199,516.130249 429.360931,516.130249 411.715637,516.130249 
	C411.715637,382.234253 411.715637,249.195999 411.715637,116.014412 
	C379.224426,116.014412 347.083313,116.014412 314.942169,116.014412 
z"></path>
  <path fill="#FFFFFF" opacity="1.000000" stroke="none" d="
M714.091797,419.621796 
	C714.111084,426.812927 714.009094,433.625824 714.007263,440.438751 
	C713.991882,498.299988 713.994812,556.161194 713.582397,614.342224 
	C713.115051,608.359131 713.007080,602.056335 713.007751,595.753479 
	C713.013855,535.816467 713.038330,475.879486 713.057495,415.942505 
	C713.057556,415.942505 712.996155,415.993622 712.963379,416.016479 
	C713.292664,417.107391 713.654846,418.175507 714.091797,419.621796 
z"></path>
  <path fill="#FFFFFF" opacity="1.000000" stroke="none" d="
M314.707794,116.066498 
	C315.050690,117.941711 315.003174,119.940544 315.003143,121.939384 
	C314.999756,334.909973 315.000000,547.880615 315.000000,760.851196 
	C315.000000,762.675964 315.000000,764.500732 315.000000,766.347717 
	C297.745605,766.347717 280.614563,766.347717 263.813049,766.347717 
	C263.329041,765.426453 263.056305,765.149780 263.056366,764.873230 
	C263.068542,716.716370 263.100189,668.559448 263.527771,620.226318 
	C263.924469,668.182251 263.924469,716.314453 263.924469,764.723022 
	C280.683289,764.723022 297.082458,764.723022 313.983490,764.723022 
	C313.983490,550.093323 313.983490,335.509979 313.908417,120.463318 
	C314.002075,118.730003 314.170807,117.460068 314.707794,116.066498 
z"></path>
  <path fill="#FFFFFF" opacity="1.000000" stroke="none" d="
M212.753143,565.551270 
	C195.752533,565.922424 178.577530,565.895630 161.226379,565.472168 
	C178.226410,565.101379 195.402557,565.127319 212.753143,565.551270 
z"></path>
  <path fill="#FFFFFF" opacity="1.000000" stroke="none" d="
M763.613892,614.981873 
	C762.177368,615.552368 760.261536,616.656067 758.356995,616.637085 
	C747.704041,616.530945 737.053711,616.153564 726.226135,615.472168 
	C738.413147,615.049255 750.776489,615.022949 763.613892,614.981873 
z"></path>
</svg>