<svg width="96" height="75" id="Layer_1" data-name="Layer 1" xmlns="http://www.w3.org/2000/svg" viewBox="314 313.15 254.78 197.4"><defs><style>.cls-1{fill:#224099;}</style></defs><path class="cls-1" d="M404.1,352.09V314.26c2-.15,3.76-.27,5.37-.38s3.35-.22,5.25-.32,3.8-.19,5.67-.26,3.54-.11,5-.11a22.51,22.51,0,0,1,7.79,1.19,14.24,14.24,0,0,1,5.17,3.17,12.44,12.44,0,0,1,2.88,4.33,13.07,13.07,0,0,1,.91,4.74,11.94,11.94,0,0,1-2.11,7.12,17.53,17.53,0,0,1-5.38,4.92L445,352.09H426.23l-6.66-11v11Zm15.38-17.86a18.62,18.62,0,0,0,6.59-3.71,6,6,0,0,0,2-4.3,3.73,3.73,0,0,0-.71-2.63,2.44,2.44,0,0,0-1.78-.71,4.53,4.53,0,0,0-1.42.23,14.4,14.4,0,0,0-1.54.55L419.48,325Z"/><path class="cls-1" d="M467.44,352.09H482.2v37.83H467.44v-14l-7.87.69v13.29H444.83V352.09h14.74v13.67l7.87-.64Z"/><path class="cls-1" d="M397.12,389.86h5.42L420.83,407l18.79-17.18h5.24V427.7H429.29V415.43L419.63,426l-9.41-10.33v12h-13.1Z"/><path class="cls-1" d="M464.18,452.07a21.89,21.89,0,0,1-7.76-1.41,21.59,21.59,0,0,1-6.76-4,19.42,19.42,0,0,1-4.75-6.31,18.91,18.91,0,0,1-1.75-8.23,19.5,19.5,0,0,1,1.65-8.11,18.49,18.49,0,0,1,4.56-6.27,20.5,20.5,0,0,1,6.71-4,23.09,23.09,0,0,1,8.09-1.41,25.25,25.25,0,0,1,8.4,1.36,20.19,20.19,0,0,1,6.83,4,18.1,18.1,0,0,1,4.57,6.3,20.44,20.44,0,0,1,1.64,8.4,19,19,0,0,1-1.72,8.2,18.68,18.68,0,0,1-4.74,6.25,21.9,21.9,0,0,1-6.86,4A23.87,23.87,0,0,1,464.18,452.07Zm-1.66-12.32a4.19,4.19,0,0,0,2.67-1.22,14.93,14.93,0,0,0,2.68-3.11,20,20,0,0,0,2.05-4,11,11,0,0,0,.79-3.88,4.27,4.27,0,0,0-.87-2.75,3.61,3.61,0,0,0-3-1.09,4.41,4.41,0,0,0-2.73,1.2,14.34,14.34,0,0,0-2.73,3.08,20.07,20.07,0,0,0-2.07,4,10.76,10.76,0,0,0-.8,3.87,4.28,4.28,0,0,0,.91,2.82A3.77,3.77,0,0,0,462.52,439.75Z"/></svg>