<svg id="Layer_1" data-name="Layer 1" xmlns="http://www.w3.org/2000/svg" viewBox="0 0 1440 826.87"><defs><style>.cls-1{fill:#fff;stroke:#204396;stroke-width:0.26px;}.cls-1,.cls-4{stroke-miterlimit:10;}.cls-2{opacity:0.3;}.cls-3{fill:#dcdbdb;}.cls-4,.cls-5{fill:#224099;}.cls-4{stroke:#231f20;stroke-width:0.37px;}</style></defs><rect class="cls-1" y="61.84" width="1470.59" height="729.37"/><g class="cls-2"><path class="cls-3" d="M1139,327.32h43.1V438.13H1139V397.19l-23,2v38.92h-43V327.32h43v40l23-1.88Z"/><path class="cls-3" d="M1119.49,620.15a64.27,64.27,0,0,1-42.38-16,56.88,56.88,0,0,1-13.87-18.49,55.58,55.58,0,0,1-5.12-24.11,57.09,57.09,0,0,1,4.81-23.73,54.81,54.81,0,0,1,13.32-18.39,60.18,60.18,0,0,1,19.61-11.83,67.24,67.24,0,0,1,23.62-4.13,73.67,73.67,0,0,1,24.53,4,59,59,0,0,1,19.92,11.59,53.17,53.17,0,0,1,13.35,18.45,60.09,60.09,0,0,1,4.81,24.6,55.69,55.69,0,0,1-5,24,54.35,54.35,0,0,1-13.83,18.28,63.45,63.45,0,0,1-20,11.63A69.34,69.34,0,0,1,1119.49,620.15Zm-4.85-36.08c2.45,0,5-1.19,7.82-3.58a43.43,43.43,0,0,0,7.81-9.12,58.44,58.44,0,0,0,6-11.73,32.7,32.7,0,0,0,2.32-11.38,12.5,12.5,0,0,0-2.56-8c-1.71-2.12-4.59-3.19-8.65-3.19-2.49,0-5.16,1.17-8,3.51a41.57,41.57,0,0,0-8,9,58.67,58.67,0,0,0-6.05,11.66,31.82,31.82,0,0,0-2.35,11.34,12.66,12.66,0,0,0,2.66,8.26Q1108.35,584.07,1114.64,584.07Z"/><path class="cls-3" d="M1073,548.76V438H1057.7l-54.86,50.3L949.43,438H343.35V548.76h43.95a82.36,82.36,0,0,1,164.7,0H971.85v-35.1l27.46,30.24,28.23-31.08v35.94Z"/><path class="cls-3" d="M1042.67,288a51.28,51.28,0,0,0,15.85-14.4q6.23-8.72,6.22-20.85a38.23,38.23,0,0,0-2.69-13.88,36.35,36.35,0,0,0-8.49-12.7,41.94,41.94,0,0,0-15.22-9.26q-9.43-3.51-23-3.5-6.51,0-14.78.31t-16.69.76q-8.42.47-15.51.94c-4.72.33-10,.7-897.89,1.11V327.34h33.34c0-1.11-.07-2.22-.07-3.34,0-45.63,37.24-82.62,83.17-82.62s83.17,37,83.17,82.62c0,1.12,0,2.23-.07,3.34H998.18V295.21l19.63,32.13H1073Zm-25.32-23.84Q1011.44,270,997.89,275V247.9l9.29-3.82q2.39-1,4.54-1.63a14.07,14.07,0,0,1,4.19-.67,7.12,7.12,0,0,1,5.24,2.09q2.1,2.07,2.1,7.7Q1023.25,258.29,1017.35,264.16Z"/></g><path class="cls-4" d="M623.69,329.29V219.22l15.57-1.1q7-.48,15.25-.93t16.42-.76q8.15-.3,14.54-.31,13.34,0,22.61,3.48a41.31,41.31,0,0,1,15,9.2,36.29,36.29,0,0,1,8.35,12.61,38.33,38.33,0,0,1,2.64,13.79q0,12.06-6.11,20.71a50.52,50.52,0,0,1-15.6,14.3l29.82,39.08H687.88l-19.31-31.91v31.91Zm44.6-52q13.34-5,19.14-10.79T693.24,254q0-5.59-2.07-7.65a7,7,0,0,0-5.15-2.07,13.56,13.56,0,0,0-4.12.66q-2.13.65-4.47,1.61l-9.14,3.8Z"/><path class="cls-4" d="M807.4,329.27h42.81V439.34H807.4V398.68l-22.82,2v38.67H741.84V329.28h42.74V369l22.82-1.86Z"/><path class="cls-4" d="M603.44,439.17h15.74l53,50,54.5-50H741.9V549.23H696.76v-35.7l-28,30.87-27.29-30v34.87h-38Z"/><path class="cls-4" d="M797.94,620.15a63.78,63.78,0,0,1-42.09-15.85,56.25,56.25,0,0,1-13.78-18.37A55.2,55.2,0,0,1,737,562a56.67,56.67,0,0,1,4.78-23.57A54.47,54.47,0,0,1,755,520.14a59.67,59.67,0,0,1,19.48-11.75,66.83,66.83,0,0,1,23.46-4.1,73.12,73.12,0,0,1,24.36,4,58.62,58.62,0,0,1,19.8,11.51,53,53,0,0,1,13.26,18.33,59.84,59.84,0,0,1,4.77,24.44,55.42,55.42,0,0,1-5,23.88,54,54,0,0,1-13.74,18.16,62.78,62.78,0,0,1-19.9,11.54A68.7,68.7,0,0,1,797.94,620.15Zm-4.81-35.84q3.63,0,7.76-3.55a43.19,43.19,0,0,0,7.76-9.07,58.1,58.1,0,0,0,6-11.64,32.51,32.51,0,0,0,2.3-11.31,12.39,12.39,0,0,0-2.54-8q-2.55-3.16-8.59-3.17c-2.48,0-5.12,1.16-7.94,3.48a41.23,41.23,0,0,0-7.9,9,57.92,57.92,0,0,0-6,11.58,31.86,31.86,0,0,0-2.33,11.27,12.5,12.5,0,0,0,2.65,8.2Q786.87,584.31,793.13,584.31Z"/><path class="cls-5" d="M534.33,658.07h-6v9.11h-2.87v-9.11H520v-2.88h14.37Z"/><path class="cls-5" d="M551.72,655.19v12h-2.88v-4.53H539v4.53h-2.87v-12H539v4.58h9.84v-4.58Z"/><path class="cls-5" d="M557.32,658v1.71h8.1v2.88h-8.1v1.7h8.86v2.88H554.45v-12h11.73V658Z"/><path class="cls-5" d="M594,667.17h-3.42l-1.73-2.71h-7.65l-1.73,2.71H576l7.71-12.06h2.51Zm-7-5.59-2-3.09-2,3.09Z"/><path class="cls-5" d="M607.11,667.18l-2.92-2.78h-5.81v2.77h-2.87v-12h8.24c3.53,0,6.3,2,6.3,4.61a4.34,4.34,0,0,1-2.64,3.77l3.77,3.61Zm-8.73-5.54h5.37c2,0,3.43-1,3.43-1.84s-1.46-1.84-3.43-1.84h-5.37Z"/><path class="cls-5" d="M627.54,664.52a9.74,9.74,0,0,1-7,2.66c-4.76,0-8.49-2.67-8.49-6.08s3.73-6.09,8.49-6.09a10.84,10.84,0,0,1,5.43,1.38l-1.46,2.49a7.9,7.9,0,0,0-4-1c-3.31,0-5.62,1.69-5.62,3.21s2.31,3.2,5.62,3.2a7,7,0,0,0,5-1.75Z"/><path class="cls-5" d="M644.83,655.19v12H642v-4.53h-9.85v4.53h-2.87v-12h2.87v4.58H642v-4.58Z"/><path class="cls-5" d="M647.56,667.18v-12h2.87v12Z"/><path class="cls-5" d="M666.61,658.07h-6v9.11h-2.87v-9.11h-5.49v-2.88h14.37Z"/><path class="cls-5" d="M671.28,658v1.71h8.1v2.88h-8.1v1.7h8.87v2.88H668.41v-12h11.74V658Z"/><path class="cls-5" d="M697.16,664.52a9.72,9.72,0,0,1-7,2.66c-4.76,0-8.49-2.67-8.49-6.08s3.73-6.09,8.49-6.09a10.84,10.84,0,0,1,5.43,1.38l-1.46,2.49a7.84,7.84,0,0,0-4-1c-3.31,0-5.62,1.69-5.62,3.21s2.31,3.2,5.62,3.2a7,7,0,0,0,5-1.75Z"/><path class="cls-5" d="M712.3,658.07h-6v9.11h-2.87v-9.11h-5.49v-2.88H712.3Z"/><path class="cls-5" d="M728.35,655.07v6.62c0,3.08-3.19,5.49-7.27,5.49s-7.27-2.41-7.27-5.49v-6.62h2.87v6.62c0,1.24,1.8,2.61,4.4,2.61s4.4-1.37,4.4-2.61v-6.62Z"/><path class="cls-5" d="M742.39,667.18l-2.91-2.78h-5.82v2.77h-2.87v-12H739c3.53,0,6.3,2,6.3,4.61a4.34,4.34,0,0,1-2.64,3.77l3.77,3.61Zm-8.73-5.54H739c2,0,3.43-1,3.43-1.84S741,658,739,658h-5.38Z"/><path class="cls-5" d="M751.06,658v1.71h8.1v2.88h-8.1v1.7h8.87v2.88H748.19v-12h11.74V658Z"/><path class="cls-5" d="M788,661.11c0,3.4-3.88,6.07-8.84,6.07s-8.84-2.67-8.84-6.07,3.89-6.07,8.84-6.07S788,657.71,788,661.11Zm-2.87,0c0-1.84-2.73-3.39-6-3.39s-6,1.55-6,3.39,2.74,3.39,6,3.39S785.09,663,785.09,661.11Z"/><path class="cls-5" d="M792.87,658v1.7H801v2.88h-8.1v4.6H790V655.12h11.74V658Z"/><path class="cls-5" d="M812.39,667.17v-12h2.87v12Z"/><path class="cls-5" d="M837.88,655.2v12H835v-8.47l-6.34,5.52h-1.48l-6.33-5.52v8.47H818v-12h3.22l6.73,5.86,6.74-5.86Z"/><path class="cls-5" d="M857.39,667.18H854l-1.74-2.71h-7.65l-1.73,2.71h-3.41l7.71-12.06h2.51Zm-7-5.59-2-3.1-2,3.1Z"/><path class="cls-5" d="M872.39,659.77v2.51a4.48,4.48,0,0,1-2.77,3.92h0a10.19,10.19,0,0,1-4.43,1c-4.56,0-8.13-2.67-8.13-6.08s3.57-6.07,8.13-6.07a9.63,9.63,0,0,1,5.9,1.88l-1.78,2.24a6.78,6.78,0,0,0-4.12-1.26c-2.85,0-5.26,1.47-5.26,3.21s2.41,3.22,5.26,3.22a7.34,7.34,0,0,0,3.18-.68h0a2.15,2.15,0,0,0,1.07-1H864v-2.86Z"/><path class="cls-5" d="M874.54,667.18v-12h2.87v12Z"/><path class="cls-5" d="M896.76,655.19v12h-3.32L883,658.71v8.46h-2.87v-12h3.13l10.61,8.62v-8.64Z"/><path class="cls-5" d="M916.26,667.18h-3.41l-1.74-2.71h-7.65l-1.73,2.71h-3.41L906,655.12h2.51Zm-7-5.59-2-3.1-2,3.1Z"/><path class="cls-5" d="M929.27,658.07h-6v9.11h-2.87v-9.11h-5.5v-2.88h14.38Z"/><path class="cls-5" d="M931.06,667.18v-12h2.87v12Z"/><path class="cls-5" d="M953.67,661.11c0,3.4-3.88,6.07-8.83,6.07s-8.84-2.67-8.84-6.07,3.88-6.07,8.84-6.07S953.68,657.71,953.67,661.11Zm-2.87,0c0-1.84-2.73-3.39-6-3.39s-6,1.55-6,3.39,2.73,3.39,6,3.39S950.8,663,950.8,661.11Z"/><path class="cls-5" d="M972.32,655.19v12H969l-10.42-8.47v8.46h-2.87v-12h3.13l10.6,8.62v-8.64Z"/><path class="cls-5" d="M974.51,667.18v-1.67h1.66v1.67Z"/></svg>